<svg xmlns="http://www.w3.org/2000/svg" viewBox="0 0 456 24" width="456" height="24"><path d="M8 5v7h11L8 5m0 7v7l11-7H8M32.057457 4.961897l-.07904 6.978553 11.021293.12483.000328-.028999-10.942581-7.074384m-.079358 7.006551L31.89906 18.947l11.100005-6.824724.000328-.028999-11.021293-.124829M56.266242 4.831197l-.355405 6.891842 11.083273.571552.006746-.130826-10.734614-7.332568m-.362203 7.023667l-.355405 6.891842 11.431931-6.189464.006747-.130826-11.083273-.571552M80.704634 4.579568l-.899011 6.684819 11.15458 1.500129.04545-.337958-10.301019-7.84699m-.944328 7.021785l-.899011 6.68482 12.00814-4.846733.04545-.337958-11.15458-1.500129M105.49857 4.202042l-1.759224 6.231433 11.092431 3.131555.190458-.67463-9.523665-8.688358m-1.94941 6.905101l-1.759225 6.231433 12.661198-2.425247.190458-.67463-11.092432-3.131556M130.745942 3.787824l-2.820384 5.385135 10.560321 5.53081.570201-1.08872-8.310138-9.827225m-3.390121 6.47297l-2.820384 5.385135 12.810504 1.234395.570201-1.08872-10.560321-5.53081M156.26084 3.538251l-3.703604 4.237653 9.315608 8.141611 1.203606-1.377162-6.81561-11.002102m-4.907867 5.615568l-3.703604 4.237653 11.815606 5.28112 1.203606-1.377162-9.315608-8.141611M181.66613 3.537344l-4.18347 3.137039 7.661718 10.21746 1.888922-1.416436-5.36717-11.938063m-6.073193 4.554076l-4.18347 3.137039 9.956266 8.496859 1.888923-1.416437-7.661719-10.217461M206.792716 3.693788l-4.362473 2.26408 6.028027 11.614917 2.46837-1.28106-4.133924-12.597937m-6.829955 3.544679l-4.362472 2.26408 7.92213 10.631896 2.468369-1.28106-6.028027-11.614916M231.656552 3.913052l-4.385593 1.613539 4.601677 12.507338 2.911215-1.071089-3.127299-13.049788m-7.296808 2.684627l-4.385592 1.61354 6.076053 11.964887 2.911215-1.071089-4.601676-12.507338M256.314794 4.141359l-4.342896 1.135948 3.418978 13.071255 3.24-.84747-2.316082-13.359733m-7.581928 1.983164l-4.342895 1.135947 4.521873 12.782777 3.24-.84747-3.418978-13.071254M280.814786 4.352406l-4.275611.784573 2.464176 13.428784 3.479898-.63856-1.668463-13.574797m-7.755509 1.423133l-4.275611.784573 3.25989 13.28277 3.479898-.63856-2.464177-13.428783M305.192662 4.535742l-4.204234.525914 1.708196 13.655574 3.654519-.45715-1.158481-13.724338m-7.859745.983187l-4.204234.525914 2.257913 13.58681 3.654518-.45715-1.708197-13.655574M329.477199 4.686928l-4.141326.336821 1.122332 13.799435 3.780517-.307476-.761523-13.82878m-7.92284.644378l-4.141325.336821 1.48314 13.77009 3.780518-.307476-1.122332-13.799435M353.68534 4.80676l-4.088082.20057.681434 13.889293 3.870345-.189886-.463696-13.899977m-7.959427.390504l-4.088082.200569.899172 13.878611 3.870344-.189886-.681434-13.889294M377.83329 4.895107l-4.048616.105855.364615 13.945235 3.931656-.102798-.247654-13.948292m-7.981273.20868l-4.048616.105855.481574 13.942176 3.931657-.102798-.364615-13.945234M401.929487 4.955025l-4.020754.044448.154524 13.978146 3.971757-.043906-.105527-13.978688m-7.992511.088355l-4.020755.044448.20352 13.977604 3.971758-.043906-.154523-13.978146M425.983527 4.989192l-4.004986.010564.036917 13.994952 3.992987-.010533-.024918-13.994983m-7.998972.0211l-4.004986.010565.048917 13.99492 3.992986-.010533-.036917-13.994952M450 5h-4v14h4V5m-8 0h-4v14h4V5" fill="#000000"/></svg>